<svg width="16" height="16" viewBox="0 0 16 16" fill="none" xmlns="http://www.w3.org/2000/svg">
<path d="M10.875 2.98438C10.103 2.09277 9.23409 1.28991 8.28438 0.590625C8.2003 0.531732 8.10015 0.50014 7.9975 0.50014C7.89485 0.50014 7.7947 0.531732 7.71063 0.590625C6.76266 1.2902 5.89545 2.09305 5.125 2.98438C3.40688 4.9575 2.5 7.0375 2.5 9C2.5 10.4587 3.07946 11.8576 4.11091 12.8891C5.14236 13.9205 6.54131 14.5 8 14.5C9.45869 14.5 10.8576 13.9205 11.8891 12.8891C12.9205 11.8576 13.5 10.4587 13.5 9C13.5 7.0375 12.5931 4.9575 10.875 2.98438Z" fill="white"/>
</svg>
