<svg width="16" height="16" viewBox="0 0 16 16" fill="none" xmlns="http://www.w3.org/2000/svg">
<path d="M13.3656 7.84125L6.36559 15.3413C6.29141 15.4204 6.19349 15.4733 6.08661 15.4919C5.97974 15.5106 5.8697 15.4939 5.7731 15.4445C5.67651 15.3952 5.5986 15.3157 5.55113 15.2181C5.50366 15.1206 5.48921 15.0102 5.50996 14.9038L6.42621 10.3206L2.82434 8.96813C2.74698 8.93919 2.678 8.89154 2.62355 8.82944C2.5691 8.76734 2.53089 8.69272 2.51232 8.61225C2.49374 8.53177 2.4954 8.44795 2.51713 8.36827C2.53886 8.28859 2.57998 8.21553 2.63684 8.15562L9.63684 0.655625C9.71102 0.576459 9.80893 0.523569 9.91581 0.504935C10.0227 0.486301 10.1327 0.502935 10.2293 0.552326C10.3259 0.601716 10.4038 0.681185 10.4513 0.778738C10.4988 0.876292 10.5132 0.986638 10.4925 1.09312L9.57371 5.68125L13.1756 7.03187C13.2524 7.061 13.3208 7.1086 13.3748 7.17045C13.4288 7.23231 13.4668 7.30652 13.4853 7.38652C13.5039 7.46653 13.5024 7.54987 13.4811 7.62918C13.4598 7.70849 13.4192 7.78132 13.3631 7.84125H13.3656Z" fill="white"/>
</svg>
